<?xml version="1.0" standalone="no"?>
<!DOCTYPE svg PUBLIC "-//W3C//DTD SVG 20010904//EN"
 "http://www.w3.org/TR/2001/REC-SVG-20010904/DTD/svg10.dtd">
<svg version="1.0" xmlns="http://www.w3.org/2000/svg"
 width="200.000000pt" height="200.000000pt" viewBox="0 0 200.000000 200.000000"
 preserveAspectRatio="xMidYMid meet">
<metadata>
Created by potrace 1.11, written by Peter Selinger 2001-2013
</metadata>
<g transform="translate(0.000000,200.000000) scale(0.100000,-0.100000)"
fill="#000000" stroke="none">
<path d="M1488 1785 c-144 -79 -245 -123 -271 -118 -57 11 -287 -128 -287
-173 0 -7 -9 -16 -20 -19 -11 -4 -27 -19 -35 -35 -8 -15 -28 -42 -45 -58 -16
-17 -30 -37 -30 -44 0 -8 -10 -34 -21 -59 -12 -24 -30 -91 -40 -149 -22 -124
-27 -152 -31 -155 -2 -1 -14 -9 -27 -18 -35 -24 -36 -45 -1 -43 19 1 26 -2 23
-11 -3 -7 -14 -13 -25 -13 -16 0 -19 -5 -16 -25 3 -14 2 -25 -2 -25 -10 0 -1
-40 13 -57 5 -7 19 -13 31 -13 16 0 18 -2 7 -9 -23 -15 52 -25 79 -11 16 8 25
9 35 0 10 -8 24 -8 49 -1 20 5 36 6 36 2 0 -16 72 -21 93 -6 23 16 57 1 57
-27 0 -10 14 -24 33 -33 25 -13 28 -13 14 -1 -18 14 -17 15 12 37 l31 23 -31
13 c-17 7 -44 13 -60 13 -26 0 -29 4 -29 30 0 24 -4 30 -22 30 -52 1 -55 13
-32 129 5 23 4 32 -4 27 -6 -3 -13 -2 -16 3 -4 5 2 11 11 13 14 4 11 8 -14 24
-34 20 -42 39 -20 47 7 4 3 9 -11 13 -23 7 -24 9 -20 110 l3 103 58 59 c32 32
55 61 52 64 -9 9 33 21 45 13 6 -4 8 -10 5 -15 -5 -8 16 -27 61 -57 11 -7 15
-12 9 -11 -5 1 -18 -2 -28 -7 -17 -7 -17 -8 0 -20 10 -7 22 -11 27 -8 5 4 6 1
2 -6 -4 -6 0 -14 8 -17 9 -3 14 -9 11 -14 -2 -4 18 -17 45 -30 28 -13 59 -38
72 -57 13 -18 36 -39 53 -47 l30 -15 -55 -25 c-35 -16 -48 -25 -35 -27 28 -2
27 -2 55 5 l25 7 -25 -22 -25 -22 35 6 c32 6 33 5 16 -8 -10 -8 -24 -16 -30
-19 -7 -3 -6 -8 4 -15 12 -8 8 -10 -17 -7 -22 3 -33 0 -38 -12 -5 -14 -7 -14
-15 -2 -6 8 -10 10 -10 5 0 -6 5 -16 12 -23 9 -9 9 -12 -3 -12 -24 -1 52 -30
80 -31 23 0 24 -1 6 -9 -23 -10 -15 -12 35 -11 31 1 32 0 13 -9 -30 -12 -29
-24 1 -16 21 5 23 3 18 -17 -3 -12 -12 -33 -21 -47 -15 -23 -15 -24 2 -11 9 7
17 10 17 5 0 -4 12 3 27 17 24 21 25 21 9 2 -10 -12 -18 -34 -18 -48 0 -21
-17 -40 -74 -88 -41 -34 -89 -70 -106 -79 -18 -10 -26 -18 -17 -18 19 0 173
123 201 161 12 15 24 26 29 24 10 -7 74 21 89 40 11 13 15 13 22 3 6 -10 13
-7 28 12 15 19 20 21 20 9 0 -10 -28 -35 -65 -59 -36 -23 -65 -44 -65 -46 0
-10 85 43 116 72 32 29 34 36 34 93 0 55 3 65 28 86 26 22 27 28 30 132 3 92
0 115 -17 156 -12 27 -21 64 -21 83 0 19 -7 51 -16 72 -23 52 -23 177 -1 219
27 51 22 85 -18 126 -20 21 -42 37 -50 37 -7 0 -42 -16 -77 -35z m-691 -647
c-3 -7 -5 -2 -5 12 0 14 2 19 5 13 2 -7 2 -19 0 -25z m10 -110 c-3 -8 -6 -5
-6 6 -1 11 2 17 5 13 3 -3 4 -12 1 -19z m-3 -29 c3 -3 1 -21 -4 -41 -8 -28
-20 -41 -51 -57 l-41 -22 41 49 c38 45 52 70 33 58 -5 -3 -9 1 -9 8 0 13 20
16 31 5z m-74 -39 c-6 -11 -13 -20 -16 -20 -2 0 0 9 6 20 6 11 13 20 16 20 2
0 0 -9 -6 -20z m40 7 c0 -2 -9 -12 -20 -22 -24 -21 -27 -14 -4 9 15 15 24 20
24 13z"/>
<path d="M997 1134 c-21 -14 -35 -29 -32 -34 5 -8 125 45 125 55 0 15 -61 1
-93 -21z"/>
<path d="M1030 1088 c-15 -5 -20 -13 -16 -24 3 -9 6 -20 6 -25 0 -5 4 -9 10
-9 5 0 6 8 3 18 -6 15 -4 15 9 4 14 -11 18 -11 25 2 4 8 17 14 27 13 10 -1 21
3 23 9 5 15 -58 23 -87 12z"/>
<path d="M1008 843 c7 -3 16 -2 19 1 4 3 -2 6 -13 5 -11 0 -14 -3 -6 -6z"/>
<path d="M1651 815 c0 -5 11 -30 24 -55 13 -25 24 -40 24 -35 0 6 -11 30 -24
55 -13 25 -24 41 -24 35z"/>
<path d="M1431 705 c-17 -19 -38 -49 -47 -66 -15 -29 -16 -30 -30 -12 -14 17
-14 17 -5 -3 9 -18 5 -29 -16 -60 -37 -56 -125 -156 -131 -150 -3 3 1 12 8 21
7 8 10 15 7 15 -12 0 -87 -117 -87 -136 0 -11 7 -29 16 -40 15 -18 15 -18 5 3
-6 12 -11 29 -11 38 0 21 50 96 61 90 11 -7 123 125 177 209 25 39 56 83 70
99 14 15 23 27 20 27 -3 0 -20 -16 -37 -35z"/>
<path d="M1613 649 c-76 -68 -84 -76 -48 -52 40 28 122 102 113 103 -4 0 -34
-23 -65 -51z"/>
<path d="M1121 648 c-1 -19 25 -48 42 -48 7 0 4 5 -6 11 -10 6 -22 20 -27 32
-6 16 -9 18 -9 5z"/>
<path d="M1740 622 c0 -5 3 -12 7 -16 4 -4 17 -30 30 -59 12 -29 22 -46 23
-40 0 13 -50 123 -56 123 -2 0 -4 -4 -4 -8z"/>
<path d="M1239 493 c-13 -16 -12 -17 4 -4 16 13 21 21 13 21 -2 0 -10 -8 -17
-17z"/>
<path d="M1809 443 c10 -27 33 -87 51 -136 18 -48 35 -86 37 -84 2 2 -11 42
-28 88 -17 46 -38 105 -47 132 -9 26 -19 47 -24 47 -4 0 1 -21 11 -47z"/>
<path d="M1597 343 c-3 -80 -11 -146 -22 -176 -9 -27 -15 -51 -12 -53 2 -2 12
19 21 48 17 49 36 308 24 308 -3 0 -8 -57 -11 -127z"/>
<path d="M1350 392 c-43 -46 -154 -202 -147 -208 2 -3 30 33 61 80 31 46 75
103 96 125 22 23 37 41 33 41 -3 0 -22 -17 -43 -38z"/>
<path d="M1200 294 c0 -6 7 -19 16 -30 14 -18 14 -18 3 6 -14 31 -19 36 -19
24z"/>
<path d="M1340 215 c-6 -7 -13 -20 -14 -27 -1 -7 -12 -32 -24 -56 -12 -23 -21
-42 -19 -42 10 0 66 103 61 111 -3 5 0 8 7 7 6 -2 14 3 16 10 6 17 -12 15 -27
-3z"/>
<path d="M1161 207 c0 -9 -17 -56 -36 -104 -19 -48 -35 -92 -34 -97 0 -6 18
33 40 88 22 54 38 106 36 115 -4 13 -5 13 -6 -2z"/>
<path d="M1238 183 c-31 -34 -112 -172 -105 -180 3 -3 24 30 48 72 23 42 53
90 66 106 31 37 25 38 -9 2z"/>
<path d="M1183 153 c-3 -10 -8 -22 -11 -27 -3 -5 0 -6 5 -3 11 7 25 47 17 47
-3 0 -7 -8 -11 -17z"/>
<path d="M1850 153 c0 -5 9 -32 21 -62 11 -30 18 -60 15 -68 -3 -8 -1 -11 4
-8 6 3 10 1 10 -6 0 -7 3 -10 6 -6 4 3 -6 40 -21 82 -25 69 -35 87 -35 68z"/>
<path d="M1489 28 c-17 -24 -18 -29 -6 -19 18 14 42 51 33 51 -3 0 -15 -15
-27 -32z"/>
</g>
</svg>
